<svg width="12" height="12" viewBox="0 0 12 12" fill="none" xmlns="http://www.w3.org/2000/svg">
<path d="M5.99984 11.8334C2.77809 11.8334 0.166504 9.22183 0.166504 6.00008C0.166504 2.77833 2.77809 0.166748 5.99984 0.166748C9.22159 0.166748 11.8332 2.77833 11.8332 6.00008C11.8332 9.22183 9.22159 11.8334 5.99984 11.8334ZM5.99984 10.6667C7.23751 10.6667 8.4245 10.1751 9.29967 9.29991C10.1748 8.42474 10.6665 7.23776 10.6665 6.00008C10.6665 4.7624 10.1748 3.57542 9.29967 2.70025C8.4245 1.82508 7.23751 1.33341 5.99984 1.33341C4.76216 1.33341 3.57518 1.82508 2.70001 2.70025C1.82484 3.57542 1.33317 4.7624 1.33317 6.00008C1.33317 7.23776 1.82484 8.42474 2.70001 9.29991C3.57518 10.1751 4.76216 10.6667 5.99984 10.6667ZM5.4165 3.08342H6.58317V4.25008H5.4165V3.08342ZM5.4165 5.41675H6.58317V8.91675H5.4165V5.41675Z" fill="#DA1515"/>
</svg>
